# xmcd CD database file
#
# Track frame offsets:
#	215
#	16670
#	32782
#	52212
#	74607
#	95502
#	117950
#	139557
#	156902
#	174655
#	195495
#	222335
#	285335
#
# Disc length: 4064 seconds
#
# Revision: 0
# Processed by: cddbd v1.4PL0 Copyright (c) Steve Scherf et al.
# Submitted via: CDex 1.40Beta9
#
DISCID=ba0fde0d
DTITLE=Larry Howard - Larry Howard's Cornerstone Blues Jam
DYEAR=1992
DGENRE=Blues
TTITLE0=Good News Blues
TTITLE1=Love Will Make You Change Your Ways
TTITLE2=Lean On Me
TTITLE3=Evangelistic Blues
TTITLE4=Presence of The Lord
TTITLE5=Take Up Your Cross
TTITLE6=Judgement Day Blues
TTITLE7=Trouble No More
TTITLE8=Here Am I
TTITLE9=Some Kind of Wonderful
TTITLE10=Operator
TTITLE11=Tribute to Mahalia Jackson - Medley
TTITLE12=Nobody But You
EXTD=YEAR: 1992 ID3G: 0
EXTT0=
EXTT1=
EXTT2=
EXTT3=
EXTT4=
EXTT5=
EXTT6=
EXTT7=
EXTT8=
EXTT9=
EXTT10=
EXTT11=
EXTT12=
PLAYORDER=
